<?xml version="1.0" encoding="UTF-8"?><svg xmlns="http://www.w3.org/2000/svg" xmlns:xlink="http://www.w3.org/1999/xlink" fill-opacity="1" color-rendering="auto" color-interpolation="auto" stroke="black" text-rendering="auto" stroke-linecap="square" width="441" stroke-miterlimit="10" stroke-opacity="1" shape-rendering="auto" fill="black" stroke-dasharray="none" font-weight="normal" stroke-width="1" height="551" font-family="'Dialog'" font-style="normal" stroke-linejoin="miter" font-size="12" stroke-dashoffset="0" image-rendering="auto">
  <!--Generated by ySVG-->
  <defs id="genericDefs"/>
  <g>
    <defs id="defs1">
      <linearGradient x1="415.5" gradientUnits="userSpaceOnUse" x2="495.5" y1="164.75" y2="204.75" id="linearGradient1" spreadMethod="reflect">
        <stop stop-opacity="1" stop-color="rgb(232,238,247)" offset="0%"/>
        <stop stop-opacity="1" stop-color="rgb(183,201,227)" offset="100%"/>
      </linearGradient>
      <linearGradient x1="381" gradientUnits="userSpaceOnUse" x2="530" y1="225.5" y2="270.5" id="linearGradient2" spreadMethod="reflect">
        <stop stop-opacity="1" stop-color="navy" offset="0%"/>
        <stop stop-opacity="1" stop-color="navy" offset="100%"/>
      </linearGradient>
      <linearGradient x1="371.5" gradientUnits="userSpaceOnUse" x2="539.5" y1="292" y2="386" id="linearGradient3" spreadMethod="reflect">
        <stop stop-opacity="1" stop-color="rgb(232,238,247)" offset="0%"/>
        <stop stop-opacity="1" stop-color="rgb(183,201,227)" offset="100%"/>
      </linearGradient>
      <linearGradient x1="629" gradientUnits="userSpaceOnUse" x2="709" y1="319" y2="359" id="linearGradient4" spreadMethod="reflect">
        <stop stop-opacity="1" stop-color="rgb(232,238,247)" offset="0%"/>
        <stop stop-opacity="1" stop-color="rgb(183,201,227)" offset="100%"/>
      </linearGradient>
      <linearGradient x1="388" gradientUnits="userSpaceOnUse" x2="523" y1="416" y2="461" id="linearGradient5" spreadMethod="reflect">
        <stop stop-opacity="1" stop-color="yellow" offset="0%"/>
        <stop stop-opacity="1" stop-color="yellow" offset="100%"/>
      </linearGradient>
      <linearGradient x1="407.5" gradientUnits="userSpaceOnUse" x2="503.5" y1="589.975" y2="651.975" id="linearGradient6" spreadMethod="reflect">
        <stop stop-opacity="1" stop-color="rgb(232,238,247)" offset="0%"/>
        <stop stop-opacity="1" stop-color="rgb(183,201,227)" offset="100%"/>
      </linearGradient>
      <linearGradient x1="415.5" gradientUnits="userSpaceOnUse" x2="495.5" y1="674.2" y2="714.2" id="linearGradient7" spreadMethod="reflect">
        <stop stop-opacity="1" stop-color="rgb(232,238,247)" offset="0%"/>
        <stop stop-opacity="1" stop-color="rgb(183,201,227)" offset="100%"/>
      </linearGradient>
      <linearGradient x1="401.75" gradientUnits="userSpaceOnUse" x2="509.25" y1="494.4875" y2="556.4875" id="linearGradient8" spreadMethod="reflect">
        <stop stop-opacity="1" stop-color="red" offset="0%"/>
        <stop stop-opacity="1" stop-color="red" offset="100%"/>
      </linearGradient>
      <clipPath clipPathUnits="userSpaceOnUse" id="clipPath1">
        <path d="M0 0 L441 0 L441 551 L0 551 L0 0 Z"/>
      </clipPath>
      <clipPath clipPathUnits="userSpaceOnUse" id="clipPath2">
        <path d="M268 164 L709 164 L709 715 L268 715 L268 164 Z"/>
      </clipPath>
    </defs>
    <g fill="url(#linearGradient1)" transform="matrix(1,0,0,1,-268,-164)" stroke="url(#linearGradient1)">
      <ellipse rx="40" ry="20" clip-path="url(#clipPath2)" cx="455.5" cy="184.75" stroke="none"/>
    </g>
    <g stroke-linecap="butt" transform="matrix(1,0,0,1,-268,-164)" stroke-miterlimit="1.45">
      <ellipse rx="40" fill="none" ry="20" clip-path="url(#clipPath2)" cx="455.5" cy="184.75"/>
      <text x="436.0879" xml:space="preserve" y="188.9062" font-family="sans-serif" clip-path="url(#clipPath2)" stroke="none">START</text>
    </g>
    <g fill="url(#linearGradient2)" transform="matrix(1,0,0,1,-268,-164)" stroke="url(#linearGradient2)">
      <rect x="381" width="149" height="45" y="225.5" clip-path="url(#clipPath2)" stroke="none"/>
    </g>
    <g stroke-linecap="butt" transform="matrix(1,0,0,1,-268,-164)" stroke-miterlimit="1.45">
      <rect fill="none" x="381" width="149" height="45" y="225.5" clip-path="url(#clipPath2)"/>
      <path fill="none" d="M391 225.5 L391 270.5 M520 225.5 L520 270.5 M391 225.5 Z" clip-path="url(#clipPath2)"/>
      <text x="395.0283" y="252.1562" clip-path="url(#clipPath2)" fill="white" font-family="sans-serif" stroke="none" xml:space="preserve">Instrument Program</text>
    </g>
    <g fill="url(#linearGradient3)" transform="matrix(1,0,0,1,-268,-164)" stroke="url(#linearGradient3)">
      <path d="M455.5 292 L539.5 339 L455.5 386 L371.5 339 Z" clip-path="url(#clipPath2)" stroke="none"/>
    </g>
    <g stroke-linecap="butt" transform="matrix(1,0,0,1,-268,-164)" stroke-miterlimit="1.45">
      <path fill="none" d="M455.5 292 L539.5 339 L455.5 386 L371.5 339 Z" clip-path="url(#clipPath2)"/>
      <text x="395.5645" xml:space="preserve" y="336.1719" font-family="sans-serif" clip-path="url(#clipPath2)" stroke="none">Reached Maxdepth/</text>
      <text x="389.6377" xml:space="preserve" y="350.1406" font-family="sans-serif" clip-path="url(#clipPath2)" stroke="none">all branches covered?</text>
    </g>
    <g fill="url(#linearGradient4)" transform="matrix(1,0,0,1,-268,-164)" stroke="url(#linearGradient4)">
      <rect x="629" y="319" clip-path="url(#clipPath2)" width="80" rx="20" ry="20" height="40" stroke="none"/>
    </g>
    <g stroke-linecap="butt" transform="matrix(1,0,0,1,-268,-164)" stroke-miterlimit="1.45">
      <rect x="629" y="319" clip-path="url(#clipPath2)" fill="none" width="80" rx="20" ry="20" height="40"/>
      <text x="651.3779" xml:space="preserve" y="343.1562" font-family="sans-serif" clip-path="url(#clipPath2)" stroke="none">DONE</text>
    </g>
    <g fill="url(#linearGradient5)" transform="matrix(1,0,0,1,-268,-164)" stroke="url(#linearGradient5)">
      <path d="M398 416 L513 416 L523 426 L523 461 L388 461 L388 426 Z" clip-path="url(#clipPath2)" stroke="none"/>
    </g>
    <g stroke-linecap="butt" transform="matrix(1,0,0,1,-268,-164)" stroke-miterlimit="1.45">
      <path fill="none" d="M398 416 L513 416 L523 426 L523 461 L388 461 L388 426 Z" clip-path="url(#clipPath2)"/>
      <text x="410.1367" xml:space="preserve" y="442.6562" font-family="sans-serif" clip-path="url(#clipPath2)" stroke="none">Generate input</text>
    </g>
    <g fill="url(#linearGradient6)" transform="matrix(1,0,0,1,-268,-164)" stroke="url(#linearGradient6)">
      <path d="M455.5 589.975 L503.5 620.975 L455.5 651.975 L407.5 620.975 Z" clip-path="url(#clipPath2)" stroke="none"/>
    </g>
    <g stroke-linecap="butt" transform="matrix(1,0,0,1,-268,-164)" stroke-miterlimit="1.45">
      <path fill="none" d="M455.5 589.975 L503.5 620.975 L455.5 651.975 L407.5 620.975 Z" clip-path="url(#clipPath2)"/>
      <text x="417.1094" xml:space="preserve" y="625.1312" font-family="sans-serif" clip-path="url(#clipPath2)" stroke="none">Found error?</text>
    </g>
    <g fill="url(#linearGradient7)" transform="matrix(1,0,0,1,-268,-164)" stroke="url(#linearGradient7)">
      <path d="M415.5 674.2 L495.5 674.2 L495.5 714.2 L415.5 714.2 Z" clip-path="url(#clipPath2)" stroke="none"/>
    </g>
    <g stroke-linecap="butt" transform="matrix(1,0,0,1,-268,-164)" stroke-miterlimit="1.45">
      <path fill="none" d="M415.5 674.2 L495.5 674.2 L495.5 714.2 L415.5 714.2 Z" clip-path="url(#clipPath2)"/>
      <text x="429.4141" xml:space="preserve" y="698.3563" font-family="sans-serif" clip-path="url(#clipPath2)" stroke="none">Report it</text>
    </g>
    <g fill="url(#linearGradient8)" transform="matrix(1,0,0,1,-268,-164)" stroke="url(#linearGradient8)">
      <path d="M401.75 494.4875 L509.25 494.4875 L509.25 556.4875 L401.75 556.4875 Z" clip-path="url(#clipPath2)" stroke="none"/>
    </g>
    <g stroke-linecap="butt" transform="matrix(1,0,0,1,-268,-164)" stroke-miterlimit="1.45">
      <path fill="none" d="M401.75 494.4875 L509.25 494.4875 L509.25 556.4875 L401.75 556.4875 Z" clip-path="url(#clipPath2)"/>
      <text x="401.4092" xml:space="preserve" y="522.6594" font-family="sans-serif" clip-path="url(#clipPath2)" stroke="none">Run instrumented</text>
      <text x="429.7568" xml:space="preserve" y="536.6281" font-family="sans-serif" clip-path="url(#clipPath2)" stroke="none">program</text>
    </g>
    <g stroke-linecap="butt" transform="matrix(1,0,0,1,-268,-164)" stroke-miterlimit="1.45">
      <path fill="none" d="M455.5 204.7318 L455.5 217.4786" clip-path="url(#clipPath2)"/>
    </g>
    <g stroke-linecap="butt" transform="matrix(1,0,0,1,-268,-164)" stroke-miterlimit="1.45">
      <path d="M455.5 225.4786 L460.5 213.4786 L455.5 216.4786 L450.5 213.4786 Z" clip-path="url(#clipPath2)" stroke="none"/>
      <path fill="none" d="M455.5 270.5278 L455.5 284.0257" clip-path="url(#clipPath2)"/>
      <path d="M455.5 292.0257 L460.5 280.0257 L455.5 283.0257 L450.5 280.0257 Z" clip-path="url(#clipPath2)" stroke="none"/>
      <path fill="none" d="M539.4979 339 L621.0048 339" clip-path="url(#clipPath2)"/>
      <path d="M629.0048 339 L617.0048 334 L620.0048 339 L617.0048 344 Z" clip-path="url(#clipPath2)" stroke="none"/>
      <text x="573.8818" xml:space="preserve" y="313.1562" font-family="sans-serif" clip-path="url(#clipPath2)" stroke="none">yes</text>
      <path fill="none" d="M455.5 385.9807 L455.5 408.01" clip-path="url(#clipPath2)"/>
      <path d="M455.5 416.01 L460.5 404.01 L455.5 407.01 L450.5 404.01 Z" clip-path="url(#clipPath2)" stroke="none"/>
      <path fill="none" d="M407.5026 620.975 L312.52 620.975 L312.52 339 L363.4783 339" clip-path="url(#clipPath2)"/>
      <path d="M371.4783 339 L359.4783 334 L362.4783 339 L359.4783 344 Z" clip-path="url(#clipPath2)" stroke="none"/>
      <text x="345.2996" xml:space="preserve" y="595.1312" font-family="sans-serif" clip-path="url(#clipPath2)" stroke="none">no</text>
      <path fill="none" d="M455.5 651.9741 L455.5 666.2004" clip-path="url(#clipPath2)"/>
      <path d="M455.5 674.2004 L460.5 662.2004 L455.5 665.2004 L450.5 662.2004 Z" clip-path="url(#clipPath2)" stroke="none"/>
      <text x="415.1318" xml:space="preserve" y="667.7438" font-family="sans-serif" clip-path="url(#clipPath2)" stroke="none">yes</text>
      <path fill="none" d="M415.519 694.2 L268.77 694.2 L268.77 339 L363.4806 339" clip-path="url(#clipPath2)"/>
      <path d="M371.4806 339 L359.4806 334 L362.4806 339 L359.4806 344 Z" clip-path="url(#clipPath2)" stroke="none"/>
      <path fill="none" d="M455.5 460.9689 L455.5 486.4568" clip-path="url(#clipPath2)"/>
      <path d="M455.5 494.4568 L460.5 482.4568 L455.5 485.4568 L450.5 482.4568 Z" clip-path="url(#clipPath2)" stroke="none"/>
      <path fill="none" d="M455.5 556.4725 L455.5 581.9979" clip-path="url(#clipPath2)"/>
      <path d="M455.5 589.9979 L460.5 577.9979 L455.5 580.9979 L450.5 577.9979 Z" clip-path="url(#clipPath2)" stroke="none"/>
    </g>
  </g>
</svg>
